<svg width="48" height="48" viewBox="0 0 48 48" fill="none" xmlns="http://www.w3.org/2000/svg">
<rect width="48" height="48" rx="4" fill="#14CCCC"/>
<g clip-path="url(#clip0_66_683)">
<path fill-rule="evenodd" clip-rule="evenodd" d="M14.5148 24C14.5148 23.4477 14.9625 23 15.5148 23L23.0001 23L23.0001 15.5147C23.0001 14.9624 23.4478 14.5147 24.0001 14.5147C24.5524 14.5147 25.0001 14.9624 25.0001 15.5147L25.0001 23H32.4854C33.0376 23 33.4854 23.4477 33.4854 24C33.4854 24.5523 33.0376 25 32.4854 25H25.0001L25.0001 32.4853C25.0001 33.0376 24.5524 33.4853 24.0001 33.4853C23.4478 33.4853 23.0001 33.0376 23.0001 32.4853L23.0001 25L15.5148 25C14.9625 25 14.5148 24.5523 14.5148 24Z" fill="white"/>
</g>
<defs>
<clipPath id="clip0_66_683">
<rect width="24" height="24" fill="white" transform="translate(7.0293 24) rotate(-45)"/>
</clipPath>
</defs>
</svg>
