<svg width="140" height="12" viewBox="0 0 140 12" fill="none" xmlns="http://www.w3.org/2000/svg">
<path d="M0.138598 5.98777C0.138598 2.48446 3.05686 0.0927734 7.45163 0.0927734C8.94527 0.0979834 10.4224 0.395893 11.7943 0.968603L11.1342 2.7371C10.0115 2.23392 8.79255 1.96426 7.55586 1.94549C4.58548 1.94549 3.05686 3.46134 3.05686 5.98777C2.99411 6.48795 3.0387 6.9953 3.18782 7.47798C3.33695 7.96065 3.58739 8.40821 3.92342 8.79255C4.25945 9.17689 4.67382 9.48972 5.14048 9.71137C5.60715 9.93303 6.11605 10.0587 6.63521 10.0806C7.47841 10.1062 8.30406 9.84363 8.96774 9.33867C9.63141 8.83372 10.0908 8.11858 10.2657 7.31836H6.96526V5.41511H12.9755V11.6975H11.03V8.85106C10.6758 9.80121 10.0141 10.6148 9.14373 11.1703C8.27339 11.7258 7.24108 11.9935 6.20095 11.9333C5.39763 11.9379 4.60146 11.7868 3.85924 11.4888C3.11702 11.1908 2.44372 10.7519 1.87892 10.198C1.31413 9.64407 0.869219 8.98627 0.570354 8.26325C0.271488 7.54023 0.124694 6.76658 0.138598 5.98777Z" fill="#030D0D"/>
<path d="M37.5724 6.86363C37.361 8.4771 37.4493 10.1142 37.8329 11.6975H35.0536C34.7663 10.3807 34.6612 9.03267 34.741 7.68893H18.3084V11.6975H15.8765V0.294922H32.2049C35.7832 0.294922 37.7287 1.52445 37.7287 3.96666C37.749 4.6004 37.5592 5.22375 37.1871 5.74517C36.8151 6.26658 36.2804 6.6586 35.6616 6.86363H37.5724ZM18.3084 2.09711V5.85306H31.9617C34.0809 5.85306 35.1405 5.31409 35.1405 3.93298C35.1405 2.55186 34.1677 2.06342 32.0312 2.06342L18.3084 2.09711Z" fill="#030D0D"/>
<path d="M40.2124 5.98776C40.2124 2.41708 43.1133 0.0422363 47.2996 0.0422363C51.4859 0.0422363 54.4042 2.48445 54.4042 5.98776C54.4042 9.49107 51.4686 11.9333 47.2996 11.9333C43.1307 11.9333 40.2124 9.55845 40.2124 5.98776ZM51.7812 5.98776C51.7919 5.42854 51.6798 4.87352 51.4522 4.35958C51.2246 3.84565 50.8868 3.38456 50.4612 3.00698C50.0357 2.6294 49.5321 2.34397 48.984 2.16966C48.4359 1.99535 47.8558 1.93615 47.2822 1.99601C46.718 1.96048 46.1522 2.03758 45.6198 2.22254C45.0875 2.40749 44.6 2.69637 44.1874 3.0713C43.7748 3.44623 43.4459 3.89925 43.221 4.40234C42.9962 4.90543 42.8802 5.44789 42.8802 5.99618C42.8802 6.54448 42.9962 7.08694 43.221 7.59003C43.4459 8.09312 43.7748 8.54614 44.1874 8.92107C44.6 9.296 45.0875 9.58488 45.6198 9.76983C46.1522 9.95478 46.718 10.0319 47.2822 9.99636C47.8573 10.0564 48.4389 9.99681 48.9882 9.82151C49.5376 9.64621 50.042 9.35926 50.4679 8.97984C50.8937 8.60041 51.2312 8.13723 51.4576 7.62126C51.6841 7.10528 51.7945 6.54838 51.7812 5.98776V5.98776Z" fill="#030D0D"/>
<path d="M58.3823 0.294922L61.8564 8.96899L65.3306 0.294922H67.7451L71.2192 8.86794L72.3309 5.49936H74.8323L72.8868 11.7312H69.6211L66.5986 3.49507L63.524 11.6975H60.2062L55.7246 0.294922H58.3823Z" fill="#030D0D"/>
<path d="M74.0507 0.294922H89.389L88.451 2.26554H82.3191V11.6975H79.8178V2.26554H73.3906L74.0507 0.294922Z" fill="#030D0D"/>
<path d="M95.4683 0.294922L100.888 11.6975H98.1607L97.049 9.22164H90.7956L89.597 11.7312H86.8872L92.3068 0.294922H95.4683ZM96.3195 7.38576L93.9397 1.84446L91.5078 7.38576H96.3195Z" fill="#030D0D"/>
<path d="M103.651 9.03632C105.009 9.70162 106.506 10.0587 108.028 10.0806C109.974 10.0806 111.016 9.50792 111.016 8.7163C111.016 6.56042 103.251 7.03202 103.251 3.19185C103.251 1.28861 105.197 0.0422363 108.323 0.0422363C110.019 0.0443956 111.696 0.37659 113.257 1.01912L112.562 2.87183C111.232 2.29819 109.796 1.9944 108.341 1.97916C106.604 1.97916 105.909 2.40023 105.909 3.15816C105.909 5.4151 113.639 5.16246 113.639 8.81736C113.639 10.6701 111.589 11.9838 108.063 11.9838C106.306 11.9853 104.569 11.6175 102.973 10.9059L103.651 9.03632Z" fill="#030D0D"/>
<path d="M119.023 0.294922V5.09513H130.922L136.238 0.294922H139.486L133.806 5.34778L139.972 11.647H136.828L132.156 6.84679H119.041V11.6638H116.522V0.294922H119.023Z" fill="#030D0D"/>
<path d="M47.2996 7.36888C48.1438 7.36888 48.8282 6.70529 48.8282 5.88671C48.8282 5.06813 48.1438 4.40454 47.2996 4.40454C46.4554 4.40454 45.771 5.06813 45.771 5.88671C45.771 6.70529 46.4554 7.36888 47.2996 7.36888Z" fill="#030D0D"/>
</svg>
