<svg width="48" height="48" viewBox="0 0 48 48" fill="none" xmlns="http://www.w3.org/2000/svg">
<path d="M25.1788 32.4C16.159 32.4 11.0142 26.0937 10.7998 15.6H15.318C15.4664 23.3021 18.7973 26.5645 21.4357 27.2372V15.6H25.69V22.2426C28.2954 21.9567 31.0327 18.9297 31.9561 15.6H36.2104C35.8625 17.3269 35.1688 18.962 34.1729 20.403C33.177 21.844 31.9003 23.0599 30.4225 23.9747C32.072 24.8106 33.529 25.9938 34.6972 27.4461C35.8654 28.8984 36.7184 30.5868 37.1998 32.4H32.5167C32.0846 30.8251 31.2063 29.4153 29.9919 28.3474C28.7775 27.2794 27.281 26.6007 25.69 26.3964V32.4H25.1788Z" fill="#0077FF"/>
</svg>
